<svg width="15" height="9" viewBox="0 0 15 9" fill="none" xmlns="http://www.w3.org/2000/svg">
<mask id="path-1-inside-1_345_1427" fill="white">
<path d="M13.993 0.850697L7.74552 6.9407L1.49802 0.850697C1.3864 0.74166 1.23655 0.680615 1.08052 0.680615C0.92448 0.680615 0.774635 0.74166 0.663018 0.850697C0.60897 0.903652 0.566033 0.966859 0.53672 1.03662C0.507408 1.10637 0.49231 1.18128 0.49231 1.25695C0.49231 1.33261 0.507408 1.40752 0.53672 1.47728C0.566033 1.54703 0.60897 1.61024 0.663018 1.6632L7.30927 8.1432C7.42598 8.25696 7.58253 8.32064 7.74552 8.32064C7.90851 8.32064 8.06505 8.25696 8.18177 8.1432L14.828 1.66445C14.8824 1.61145 14.9257 1.54809 14.9552 1.4781C14.9848 1.40811 15 1.33291 15 1.25695C15 1.18098 14.9848 1.10578 14.9552 1.03579C14.9257 0.965804 14.8824 0.902442 14.828 0.849446C14.7164 0.740409 14.5666 0.679365 14.4105 0.679365C14.2545 0.679365 14.1046 0.740409 13.993 0.849446V0.850697Z"/>
</mask>
<path d="M13.993 0.850697L7.74552 6.9407L1.49802 0.850697C1.3864 0.74166 1.23655 0.680615 1.08052 0.680615C0.92448 0.680615 0.774635 0.74166 0.663018 0.850697C0.60897 0.903652 0.566033 0.966859 0.53672 1.03662C0.507408 1.10637 0.49231 1.18128 0.49231 1.25695C0.49231 1.33261 0.507408 1.40752 0.53672 1.47728C0.566033 1.54703 0.60897 1.61024 0.663018 1.6632L7.30927 8.1432C7.42598 8.25696 7.58253 8.32064 7.74552 8.32064C7.90851 8.32064 8.06505 8.25696 8.18177 8.1432L14.828 1.66445C14.8824 1.61145 14.9257 1.54809 14.9552 1.4781C14.9848 1.40811 15 1.33291 15 1.25695C15 1.18098 14.9848 1.10578 14.9552 1.03579C14.9257 0.965804 14.8824 0.902442 14.828 0.849446C14.7164 0.740409 14.5666 0.679365 14.4105 0.679365C14.2545 0.679365 14.1046 0.740409 13.993 0.849446V0.850697Z" fill="black"/>
<path d="M13.993 0.850697L15.3891 2.28285L15.993 1.69412V0.850697H13.993ZM7.74552 6.9407L6.34947 8.37285L7.74552 9.7337L9.14156 8.37285L7.74552 6.9407ZM1.49802 0.850697L0.100436 2.28135L0.101972 2.28285L1.49802 0.850697ZM1.08052 0.680615V-1.31938V0.680615ZM0.663018 0.850697L-0.734565 -0.579957L-0.736691 -0.577875L0.663018 0.850697ZM0.49231 1.25695H2.49231H0.49231ZM0.663018 1.6632L-0.736695 3.09177L-0.733172 3.09521L0.663018 1.6632ZM7.30927 8.1432L5.91308 9.57521L5.91327 9.57539L7.30927 8.1432ZM8.18177 8.1432L9.57777 9.57539L9.57782 9.57534L8.18177 8.1432ZM14.828 1.66445L13.4328 0.23148L13.432 0.232302L14.828 1.66445ZM14.828 0.849446L13.4304 2.2801L13.4328 2.28241L14.828 0.849446ZM14.4105 0.679365V2.67937V0.679365ZM13.993 0.849446L12.5954 -0.581206L11.993 0.00728673V0.849446H13.993ZM12.597 -0.581454L6.34947 5.50855L9.14156 8.37285L15.3891 2.28285L12.597 -0.581454ZM9.14156 5.50855L2.89406 -0.581454L0.101972 2.28285L6.34947 8.37285L9.14156 5.50855ZM2.8956 -0.579956C2.41034 -1.05399 1.75889 -1.31938 1.08052 -1.31938V2.68061C0.714217 2.68061 0.362456 2.53731 0.100437 2.28135L2.8956 -0.579956ZM1.08052 -1.31938C0.402141 -1.31938 -0.24931 -1.05399 -0.734563 -0.579956L2.0606 2.28135C1.79858 2.53731 1.44682 2.68061 1.08052 2.68061V-1.31938ZM-0.736691 -0.577875C-0.980789 -0.338708 -1.17472 -0.0532349 -1.30711 0.261832L2.38055 1.8114C2.30678 1.98695 2.19873 2.14601 2.06273 2.27927L-0.736691 -0.577875ZM-1.30711 0.261832C-1.4395 0.576894 -1.50769 0.915204 -1.50769 1.25695H2.49231C2.49231 1.44736 2.45432 1.63586 2.38055 1.8114L-1.30711 0.261832ZM-1.50769 1.25695C-1.50769 1.59869 -1.4395 1.937 -1.30711 2.25206L2.38055 0.702491C2.45431 0.878035 2.49231 1.06653 2.49231 1.25695H-1.50769ZM-1.30711 2.25206C-1.17472 2.56712 -0.980793 2.8526 -0.736691 3.09177L2.06273 0.234625C2.19873 0.367885 2.30679 0.526945 2.38055 0.702491L-1.30711 2.25206ZM-0.733172 3.09521L5.91308 9.57521L8.70546 6.71119L2.05921 0.231186L-0.733172 3.09521ZM5.91327 9.57539C6.40348 10.0532 7.06095 10.3206 7.74552 10.3206V6.32064C8.1041 6.32064 8.44849 6.46072 8.70527 6.711L5.91327 9.57539ZM7.74552 10.3206C8.43008 10.3206 9.08756 10.0532 9.57777 9.57539L6.78577 6.711C7.04254 6.46072 7.38693 6.32064 7.74552 6.32064V10.3206ZM9.57782 9.57534L16.2241 3.09659L13.432 0.232302L6.78572 6.71105L9.57782 9.57534ZM16.2232 3.09741C16.4691 2.85806 16.6644 2.57188 16.7979 2.25578L13.1126 0.700416C13.187 0.524295 13.2958 0.364845 13.4328 0.23148L16.2232 3.09741ZM16.7979 2.25578C16.9313 1.93967 17 1.60004 17 1.25695H13C13 1.06579 13.0383 0.876557 13.1126 0.700416L16.7979 2.25578ZM17 1.25695C17 0.913859 16.9313 0.574229 16.7979 0.258109L13.1126 1.81348C13.0383 1.63733 13 1.4481 13 1.25695H17ZM16.7979 0.258109C16.6644 -0.0579959 16.4691 -0.34417 16.2232 -0.583521L13.4328 2.28241C13.2958 2.14905 13.187 1.9896 13.1126 1.81348L16.7979 0.258109ZM16.2256 -0.581206C15.7403 -1.05525 15.0889 -1.32063 14.4105 -1.32063V2.67937C14.0442 2.67937 13.6925 2.53607 13.4304 2.2801L16.2256 -0.581206ZM14.4105 -1.32063C13.7321 -1.32063 13.0807 -1.05524 12.5954 -0.581206L15.3906 2.2801C15.1286 2.53606 14.7768 2.67937 14.4105 2.67937V-1.32063ZM11.993 0.849446V0.850697H15.993V0.849446H11.993Z" fill="black" mask="url(#path-1-inside-1_345_1427)"/>
</svg>
